<!-- Generator: Adobe Illustrator 22.1.0, SVG Export Plug-In  -->
<svg version="1.1"
	 xmlns="http://www.w3.org/2000/svg" xmlns:xlink="http://www.w3.org/1999/xlink" xmlns:a="http://ns.adobe.com/AdobeSVGViewerExtensions/3.0/"
	 x="0px" y="0px" width="70px" height="70px" viewBox="0 0 70 70" style="enable-background:new 0 0 70 70;" xml:space="preserve">
<style type="text/css">
	.st0{fill:#FFFFFF;}
</style>
<defs>
</defs>
<path id="Facebook_1_" class="st0" d="M66.1,0H3.9C1.7,0,0,1.7,0,3.9v62.3C0,68.3,1.7,70,3.9,70h33.5V42.9h-9.1V32.3h9.1v-7.8
	c0-9,5.5-14,13.6-14c3.9,0,7.2,0.3,8.2,0.4v9.4l-5.6,0c-4.4,0-5.2,2.1-5.2,5.1v6.7h10.5l-1.4,10.6h-9.1V70h17.8
	c2.1,0,3.9-1.7,3.9-3.9V3.9C70,1.7,68.3,0,66.1,0z"/>
</svg>
