<!-- Generator: Adobe Illustrator 22.1.0, SVG Export Plug-In  -->
<svg version="1.1"
	 xmlns="http://www.w3.org/2000/svg" xmlns:xlink="http://www.w3.org/1999/xlink" xmlns:a="http://ns.adobe.com/AdobeSVGViewerExtensions/3.0/"
	 x="0px" y="0px" width="71.7px" height="71.7px" viewBox="0 0 71.7 71.7" style="enable-background:new 0 0 71.7 71.7;"
	 xml:space="preserve">
<style type="text/css">
	.st0{fill-rule:evenodd;clip-rule:evenodd;fill:#FFFFFF;}
</style>
<defs>
</defs>
<path id="Instagram_1_" class="st0" d="M63.4,30.3h-6.2c0.5,1.8,0.7,3.6,0.7,5.5c0,12.2-9.9,22.1-22.1,22.1
	c-12.2,0-22.1-9.9-22.1-22.1c0-1.9,0.3-3.8,0.7-5.5H8.3v30.3c0,1.5,1.2,2.8,2.8,2.8h49.6c1.5,0,2.8-1.2,2.8-2.8V30.3z M63.4,11
	c0-1.5-1.2-2.8-2.8-2.8h-8.3c-1.5,0-2.8,1.2-2.8,2.8v8.3c0,1.5,1.2,2.8,2.8,2.8h8.3c1.5,0,2.8-1.2,2.8-2.8V11z M35.8,22.1
	c-7.6,0-13.8,6.2-13.8,13.8c0,7.6,6.2,13.8,13.8,13.8c7.6,0,13.8-6.2,13.8-13.8C49.6,28.2,43.5,22.1,35.8,22.1 M63.4,71.7H8.3
	C3.7,71.7,0,68,0,63.4V8.3C0,3.7,3.7,0,8.3,0h55.1c4.6,0,8.3,3.7,8.3,8.3v55.1C71.7,68,68,71.7,63.4,71.7"/>
</svg>
