<!-- Generator: Adobe Illustrator 22.1.0, SVG Export Plug-In  -->
<svg version="1.1"
	 xmlns="http://www.w3.org/2000/svg" xmlns:xlink="http://www.w3.org/1999/xlink" xmlns:a="http://ns.adobe.com/AdobeSVGViewerExtensions/3.0/"
	 x="0px" y="0px" width="402px" height="398px" viewBox="0 0 402 398" style="enable-background:new 0 0 402 398;"
	 xml:space="preserve">
<style type="text/css">
	.st0{fill:#FFFFFF;}
</style>
<defs>
</defs>
<path class="st0" d="M352.8,65.2C323.7,31.7,284.4,8.8,241.4,0v14.1c85.6,18.7,146.9,94.4,146.9,182.9c0,19.7-3,39.1-9,57.6
	l11.8,8.2c7.3-21.1,11-43.2,11-65.8C402,148.5,384.6,101.7,352.8,65.2z"/>
<path class="st0" d="M160.7,0C117.6,8.8,78.3,31.7,49.2,65.2C17.5,101.7,0,148.5,0,197c0,22.6,3.7,44.7,11,65.7l12.4-6.5
	c-6.4-19.1-9.6-39-9.6-59.3c0-88.4,61.3-164.1,146.9-182.9V0z"/>
<path class="st0" d="M351.9,329.8l-11.4-7.9c-35.5,39.7-85.9,62.3-139.5,62.3c-52.9,0-102.9-22.2-138.4-61.2L50,329.6
	c17.3,19.6,38.5,36,61.8,47.5C139.6,391,169.7,398,201,398C259.2,398,313.7,373.3,351.9,329.8z"/>
<g>
	<path class="st0" d="M140.3,240.5l60.9-105.4l60.9,105.4H140.3z M201.2,188.6c-9.8,0-17.8,8-17.8,17.8s8,17.8,17.8,17.8
		c9.8,0,17.8-8,17.8-17.8S211,188.6,201.2,188.6z"/>
</g>
</svg>
