<!-- Generator: Adobe Illustrator 22.1.0, SVG Export Plug-In  -->
<svg version="1.1"
	 xmlns="http://www.w3.org/2000/svg" xmlns:xlink="http://www.w3.org/1999/xlink" xmlns:a="http://ns.adobe.com/AdobeSVGViewerExtensions/3.0/"
	 x="0px" y="0px" width="58.7px" height="67px" viewBox="0 0 58.7 67" style="enable-background:new 0 0 58.7 67;"
	 xml:space="preserve">
<style type="text/css">
	.st0{fill:#FFFFFF;}
</style>
<defs>
</defs>
<g id="Vine_1_">
	<path class="st0" d="M55.9,33.9c-8.5,0-17.3-4.5-17-16.2c0.1-5,1.9-7.7,4.7-7.7c2.6,0,4.4,2.3,4.4,7.1c0,2.7-0.7,5.7-1.3,7.4
		c0,0,2.6,4.5,9.7,3.2c1.5-3.4,2.3-7.7,2.3-11.5C58.7,6,53.5,0,43.9,0C34,0,28.3,7.6,28.3,17.6c0,9.9,4.6,18.4,12.3,22.3
		c-3.2,6.4-7.3,12.1-11.6,16.3c-7.7-9.3-14.7-21.8-17.6-46.1H0C5.3,50.6,21,63.5,25.1,66c2.3,1.4,4.4,1.3,6.5,0.1
		c3.4-1.9,13.5-12,19.1-23.9c0.9,0,4,0,5-0.1"/>
</g>
</svg>
