<!-- Generator: Adobe Illustrator 22.1.0, SVG Export Plug-In  -->
<svg version="1.1"
	 xmlns="http://www.w3.org/2000/svg" xmlns:xlink="http://www.w3.org/1999/xlink" xmlns:a="http://ns.adobe.com/AdobeSVGViewerExtensions/3.0/"
	 x="0px" y="0px" width="55.9px" height="76.8px" viewBox="0 0 55.9 76.8" style="enable-background:new 0 0 55.9 76.8;"
	 xml:space="preserve">
<style type="text/css">
	.st0{fill:#FFFFFF;}
</style>
<defs>
</defs>
<g id="Tumblr_1_">
	<path class="st0" d="M37.6,76.8c7.7,0,15.3-2.7,17.8-6.1l0.5-0.7L51.1,56c0-0.1-0.2-0.2-0.3-0.2h-0.9h-0.4h-9.3
		c-0.1,0-0.3-0.1-0.3-0.2c-0.1-0.5-0.2-1-0.2-1.8V36.5c0-0.2,0.1-0.3,0.3-0.3h12.5c0.2,0,0.3-0.1,0.3-0.3V18.2
		c0-0.2-0.1-0.3-0.3-0.3H40c-0.2,0-0.3-0.1-0.3-0.3V0.3c0-0.2-0.1-0.3-0.3-0.3h-9.8h-3.4h-8.7c-1.6,0-3.4,1.2-3.6,3.3
		c-1.1,8.9-5.2,14.2-12.8,16.8l-0.9,0.3c-0.1,0-0.2,0.2-0.2,0.3v15.2c0,0.2,0.1,0.3,0.3,0.3h6l0,0h1.9c0,0,0,14.2,0,18.7
		C8.1,69.8,18.5,76.8,37.6,76.8z M52.2,69.6c-2.4,2.3-7.3,4-12,4.1c-0.2,0-0.4,0-0.5,0h0C24.1,73.7,20,61.8,20,54.9V33.3
		c0-0.2-0.1-0.3-0.3-0.3h-7.5c-0.2,0-0.3-0.1-0.3-0.3v-9.8c0-0.1,0.1-0.2,0.2-0.3c8-3.1,12.5-9.3,13.7-18.9c0.1-0.5,0.5-0.5,0.5-0.5
		h10c0.2,0,0.3,0.1,0.3,0.3v17.2c0,0.2,0.1,0.3,0.3,0.3h12.5c0.2,0,0.3,0.1,0.3,0.3v11.4c0,0.2-0.1,0.3-0.3,0.3H36.8
		c-0.2,0-0.3,0.1-0.3,0.3v20.4c0.1,4.6,2.3,6.9,6.6,6.9c1.7,0,3.7-0.4,5.6-1.1c0.2-0.1,0.4,0,0.4,0.2l3.2,9.4
		C52.3,69.4,52.3,69.5,52.2,69.6z"/>
</g>
</svg>
